<svg width="32" height="32" version="1.1" viewBox="0 0 8.4667 8.4667" xmlns="http://www.w3.org/2000/svg" fill="#5b5fc7">
 <g transform="matrix(.15627 0 0 .15627 1.1851 .82867)">
  <path d="m-.6319 7.8894h19.433v-11.262zm20.138 1.4111h-22.763c-.31892 0-.59832-.21449-.68157-.52246-.0825-.30798.0519-.63359.32773-.79375l22.763-13.192c.21837-.12664.48683-.12735.70591-.001.21872.12594.35313.35912.35313.61136v13.192c0 .38982-.31574.70555-.70556.70555"/>
  <path d="m20.212 7.8894h19.415l-19.415-11.252zm22.039 1.4111h-22.745c-.38947 0-.70556-.31573-.70556-.70555v-13.182c0-.25224.13477-.48542.35314-.61136.21942-.1263.48789-.12559.70626.001l22.745 13.182c.27587.16016.41028.48577.32773.79375-.0833.30797-.36266.52246-.68157.52246"/>
  <path d="m-1.8483 34.98 19.43 11.261-9.7113-16.885zm21.354 13.897c-.12065 0-.24307-.0314-.35313-.0953l-22.763-13.192c-.21766-.1263-.35172-.35913-.35172-.61066 0-.25188.13441-.48436.35207-.61066l11.386-6.5881c.16263-.0938.35524-.1196.53657-.0709.18098.0487.33514.16721.42863.32985l11.377 19.78c.1591.27693.11253.62618-.11324.8516-.13618.13547-.31645.20602-.49883.20602"/>
  <path d="m-2.5507 11.237v22.519l9.718-5.6229zm-.70555 24.448c-.12171 0-.24342-.0314-.35243-.0945-.21837-.12559-.35313-.35877-.35313-.61101v-26.385c0-.31962.21449-.59937.52352-.68157.30798-.0833.63394.0529.7934.32985l11.386 19.796c.19402.3369.0783.76729-.25824.96237l-11.386 6.5881c-.10972.0632-.23142.0949-.35348.0949"/>
  <path d="m31.142 29.356-9.7113 16.885 19.43-11.261zm-11.636 19.521c-.18203 0-.3623-.0706-.49847-.20602-.22578-.22542-.27235-.57467-.11324-.8516l11.377-19.78c.0935-.16264.24765-.28117.42862-.32985.18133-.0487.37359-.0229.53622.0709l11.386 6.5881c.21766.1263.35207.35878.35207.61066 0 .25153-.13406.48436-.35172.61066l-22.763 13.192c-.11007.0639-.23248.0953-.35349.0953"/>
  <path d="m42.261 9.3086c-.11888 0-.23777-.0303-.34466-.0921-.33549-.19367-.45685-.62371-.26635-.96061l.005-.008c.15804-.27905.48401-.41663.79375-.33514.31009.0815.52599.3616.52599.68228 0 .25188-.13441.49036-.35278.61595-.11148.0645-.23601.0977-.36054.0977"/>
  <path d="m31.846 28.133 9.7176 5.6229v-22.519zm10.423 7.5519c-.12206 0-.24412-.0317-.35348-.0949l-11.386-6.5881c-.3369-.19508-.45226-.62547-.25823-.96237l11.377-19.781c.0621-.1076.15134-.1972.25894-.25929.21837-.12595.49283-.12806.70979-.002.21837.12594.35736.35666.35736.60854v26.374c0 .25224-.13476.48542-.35313.61101-.10901.0632-.23072.0945-.35243.0945"/>
  <path d="m42.265 9.3118c-.18274 0-.36407-.0698-.49953-.20496-.22578-.22613-.27587-.57256-.11607-.84914l.005-.008c.19438-.33726.62583-.45332.96308-.25823.21837.12629.3556.36053.3556.61242 0 .25223-.13264.48648-.35101.61242-.11113.0639-.23424.0952-.35666.0952"/>
  <path d="m42.26 9.3058c-.12488 0-.24976-.0332-.36124-.0995-.27235-.16263-.40746-.49001-.32315-.79622.084-.30586.35807-.5207.67557-.5207s.60502.21202.68898.51823c.0843.30586-.037.63077-.30974.7934l-.009.005c-.11148.0663-.23636.0995-.3616.0995"/>
  <path d="m-.62837 9.3005 20.135 11.651 20.135-11.651zm20.135 13.171c-.12171 0-.24377-.0314-.35348-.0949l-22.763-13.171c-.27622-.1598-.41063-.48542-.32808-.79339.0829-.30868.3623-.52282.68157-.52282h45.507c.12383 0 .24518.0325.35243.0942l.009.005c.21837.12594.35278.35878.35278.61066 0 .25224-.1337.48507-.35207.61137l-22.753 13.166c-.10936.0635-.23142.0949-.35348.0949"/>
  <path d="m-1.3336 10.522 20.134 35.008v-23.357zm20.84 38.355c-.248 0-.48331-.13123-.61136-.35383l-22.763-39.577c-.15945-.27658-.11289-.62583.11324-.85126.22578-.22542.57538-.27128.85161-.11112l22.763 13.171c.21802.12629.35208.35913.35208.61066v26.406c0 .31926-.21449.59902-.52353.68157-.0603.0162-.1217.024-.18203.024"/>
  <path d="m20.212 22.184v23.346l20.125-34.992zm-.70556 26.694c-.06 0-.12136-.008-.18168-.024-.30903-.0825-.52388-.36231-.52388-.68157v-26.364c0-.25189.13441-.51576.35208-.64206l22.754-13.166c.27623-.16051.62548-.115.85161.11077.22578.22543.27234.57468.11324.85126l-22.753 39.562c-.12771.2226-.36336.35383-.61172.35383"/>
  <path d="m42.26 9.3054c-.12136 0-.2413-.0303-.34749-.0914l-.005-.002c-.21696-.12523-.35137-.35595-.35313-.60642-.001-.25012.12947-.4826.34431-.61102.27516-.16404.62971-.12523.85901.0988.22895.22366.28293.57044.12559.84914-.0928.16404-.24906.28787-.43074.33761-.0631.0173-.12841.0258-.19297.0258"/>
  <path d="m19.506 22.482c-.12136 0-.24306-.0314-.35242-.0942-.21837-.12594-.35314-.35912-.35314-.61136 0-.25188.13441-.49495.35208-.62124l22.754-13.166c.21872-.1263.48754-.1263.70591-.00035.16193.0935.28258.24906.33126.42968.0483.18097.025.375-.0684.53693-.0617.10689-.15522.20355-.26211.26529l-22.753 13.166c-.10936.0631-.23142.0949-.35348.0949"/>
 </g>
</svg>
